<svg width="145" height="22" viewBox="0 0 145 22" fill="none" xmlns="http://www.w3.org/2000/svg">
<path d="M0.96 -1.66893e-06H5.664C8.20267 -1.66893e-06 10.0507 0.494665 11.208 1.484C12.3653 2.47333 12.944 3.78 12.944 5.404C12.944 6.43067 12.7387 7.336 12.328 8.12C11.936 8.904 11.3853 9.47333 10.676 9.828C11.572 10.2947 12.2813 10.92 12.804 11.704C13.3267 12.4693 13.588 13.608 13.588 15.12C13.588 19.04 10.4987 21 4.32 21H0.96V-1.66893e-06ZM5.916 8.54C6.99867 8.54 7.80133 8.36267 8.324 8.008C8.86533 7.65333 9.136 6.92533 9.136 5.824C9.136 4.85333 8.828 4.19067 8.212 3.836C7.61467 3.46267 6.79333 3.276 5.748 3.276H4.936V8.54H5.916ZM5.832 17.724C7.176 17.724 8.14667 17.3973 8.744 16.744C9.34133 16.072 9.64 15.344 9.64 14.56C9.64 13.3467 9.31333 12.544 8.66 12.152C8.02533 11.7413 7.12933 11.536 5.972 11.536H5.076V17.724H5.832ZM21.1419 21.364C19.2752 21.364 17.8472 20.6267 16.8579 19.152C15.8685 17.6587 15.3739 15.68 15.3739 13.216C15.3739 10.7147 15.8779 8.72667 16.8859 7.252C17.8939 5.77733 19.3592 5.04 21.2819 5.04C23.1112 5.04 24.5112 5.77733 25.4819 7.252C26.4525 8.72667 26.9379 10.7147 26.9379 13.216C26.9379 13.3653 26.9099 13.4773 26.8539 13.552C26.7979 13.608 26.7699 13.6453 26.7699 13.664H19.2939C19.2939 14.8773 19.4525 15.988 19.7699 16.996C20.0872 17.9853 20.5725 18.48 21.2259 18.48C21.9539 18.48 22.4952 18.06 22.8499 17.22C23.2045 16.38 23.3912 15.9413 23.4099 15.904L26.3779 17.024C25.9859 18.368 25.3605 19.432 24.5019 20.216C23.6432 20.9813 22.5232 21.364 21.1419 21.364ZM23.0739 11.396C23.0739 10.276 22.9245 9.38933 22.6259 8.736C22.3272 8.08267 21.8605 7.756 21.2259 7.756C20.9085 7.756 20.6005 7.91467 20.3019 8.232C20.0032 8.54933 19.7605 8.988 19.5739 9.548C19.3872 10.108 19.2939 10.724 19.2939 11.396H23.0739ZM31.8856 21.364C31.2136 21.364 30.6069 21.1587 30.0656 20.748C29.5242 20.3187 29.1042 19.7493 28.8056 19.04C28.5069 18.312 28.3576 17.5 28.3576 16.604C28.3576 14.5693 29.0482 13.1413 30.4296 12.32C31.8296 11.48 33.4536 11.004 35.3016 10.892C35.3016 9.884 35.2362 9.13733 35.1056 8.652C34.9749 8.16667 34.6576 7.924 34.1536 7.924C33.7242 7.924 33.3976 8.092 33.1736 8.428C32.9496 8.764 32.8096 9.19333 32.7536 9.716L28.9176 9.044C29.1042 7.60667 29.6922 6.58 30.6816 5.964C31.6709 5.348 32.8282 5.04 34.1536 5.04C35.8522 5.04 37.1216 5.488 37.9616 6.384C38.8202 7.28 39.2496 8.44667 39.2496 9.884V18.032C39.2496 18.9093 39.3896 19.8427 39.6696 20.832L35.8336 21.168L35.3856 19.236C35.0496 19.8333 34.5549 20.3373 33.9016 20.748C33.2482 21.1587 32.5762 21.364 31.8856 21.364ZM33.7056 18.564C34.0229 18.564 34.2842 18.4893 34.4896 18.34C34.7136 18.1907 34.9842 17.948 35.3016 17.612V13.244C34.3682 13.244 33.6216 13.496 33.0616 14C32.5016 14.504 32.2216 15.288 32.2216 16.352C32.2216 17.0613 32.3429 17.612 32.5856 18.004C32.8469 18.3773 33.2202 18.564 33.7056 18.564ZM47.3613 21.364C46.1666 21.364 45.1399 20.9907 44.2812 20.244C43.4413 19.4973 42.8066 18.508 42.3773 17.276C41.9479 16.044 41.7333 14.7093 41.7333 13.272C41.7333 11.8533 41.9386 10.5187 42.3493 9.268C42.7786 8.01733 43.4226 7 44.2812 6.216C45.1399 5.432 46.1946 5.04 47.4453 5.04C48.3973 5.04 49.2466 5.28267 49.9933 5.768C50.7586 6.23467 51.3559 6.89733 51.7853 7.756C52.2146 8.61467 52.4479 9.59467 52.4853 10.696L48.7613 10.864C48.7613 10.7893 48.7239 10.4907 48.6493 9.968C48.5933 9.44533 48.4533 9.016 48.2293 8.68C48.0239 8.344 47.7533 8.176 47.4173 8.176C46.6706 8.176 46.1946 8.68933 45.9893 9.716C45.7839 10.724 45.6813 11.8627 45.6813 13.132C45.6813 14.3827 45.7839 15.5213 45.9893 16.548C46.2133 17.556 46.7266 18.06 47.5293 18.06C48.5373 18.06 49.0599 17.0707 49.0973 15.092L52.4013 15.456C52.1586 17.3973 51.6733 18.872 50.9453 19.88C50.2173 20.8693 49.0226 21.364 47.3613 21.364ZM54.958 0.503999L58.878 -1.66893e-06V7.252C60.4833 5.77733 61.986 5.04 63.386 5.04C64.3753 5.04 65.178 5.404 65.794 6.132C66.4287 6.84133 66.746 7.80267 66.746 9.016V20.832L62.826 21.168V10.444C62.826 9.75333 62.6953 9.24 62.434 8.904C62.1913 8.568 61.8647 8.4 61.454 8.4C61.118 8.4 60.7633 8.484 60.39 8.652C60.0167 8.82 59.5127 9.09067 58.878 9.464V20.832L54.958 21.168V0.503999Z" fill="black"/>
<path d="M75.9878 11.788H74.3918V20.832L70.3038 21.168V0.168L75.2878 -1.66893e-06C77.6958 -1.66893e-06 79.5811 0.485332 80.9438 1.456C82.3064 2.408 82.9878 3.87333 82.9878 5.852C82.9878 7.15867 82.7264 8.232 82.2038 9.072C81.6998 9.912 80.9624 10.612 79.9918 11.172L81.8678 15.736L83.7717 20.272L79.7398 21.364L75.9878 11.788ZM75.7918 8.764C76.7624 8.764 77.5184 8.568 78.0598 8.176C78.6198 7.76533 78.8998 7 78.8998 5.88C78.8998 4.144 78.0411 3.276 76.3238 3.276H74.3918V8.764H75.7918ZM90.8958 21.364C89.0291 21.364 87.6011 20.6267 86.6118 19.152C85.6224 17.6587 85.1278 15.68 85.1278 13.216C85.1278 10.7147 85.6318 8.72667 86.6398 7.252C87.6478 5.77733 89.1131 5.04 91.0358 5.04C92.8651 5.04 94.2651 5.77733 95.2358 7.252C96.2064 8.72667 96.6918 10.7147 96.6918 13.216C96.6918 13.3653 96.6638 13.4773 96.6078 13.552C96.5518 13.608 96.5238 13.6453 96.5238 13.664H89.0478C89.0478 14.8773 89.2064 15.988 89.5238 16.996C89.8411 17.9853 90.3264 18.48 90.9798 18.48C91.7078 18.48 92.2491 18.06 92.6038 17.22C92.9584 16.38 93.1451 15.9413 93.1638 15.904L96.1318 17.024C95.7398 18.368 95.1144 19.432 94.2558 20.216C93.3971 20.9813 92.2771 21.364 90.8958 21.364ZM92.8278 11.396C92.8278 10.276 92.6784 9.38933 92.3798 8.736C92.0811 8.08267 91.6144 7.756 90.9798 7.756C90.6624 7.756 90.3544 7.91467 90.0558 8.232C89.7571 8.54933 89.5144 8.988 89.3278 9.548C89.1411 10.108 89.0478 10.724 89.0478 11.396H92.8278ZM103.767 21.364C102.218 21.364 100.967 21.0187 100.015 20.328C99.0635 19.6187 98.4475 18.6387 98.1675 17.388L101.219 16.38C101.294 16.7347 101.434 17.052 101.639 17.332C102.069 17.948 102.694 18.256 103.515 18.256C103.982 18.256 104.43 18.1533 104.859 17.948C105.289 17.7427 105.503 17.4253 105.503 16.996C105.503 16.4173 105.102 15.9693 104.299 15.652L100.995 14.308C100.118 13.9347 99.4461 13.3747 98.9795 12.628C98.5128 11.8813 98.2795 10.9667 98.2795 9.884C98.2795 8.876 98.5221 8.008 99.0075 7.28C99.5115 6.552 100.165 6.00133 100.967 5.628C101.789 5.236 102.666 5.04 103.599 5.04C104.775 5.04 105.858 5.38533 106.847 6.076C107.837 6.748 108.499 7.672 108.835 8.848L105.587 9.856C105.513 9.53867 105.382 9.22133 105.195 8.904C104.785 8.26933 104.262 7.952 103.627 7.952C103.161 7.952 102.759 8.064 102.423 8.288C102.087 8.49333 101.919 8.80133 101.919 9.212C101.919 9.69733 102.377 10.1453 103.291 10.556L106.091 11.704C107.081 12.1707 107.855 12.7587 108.415 13.468C108.975 14.1773 109.255 15.1293 109.255 16.324C109.255 17.4067 108.994 18.3307 108.471 19.096C107.949 19.8427 107.267 20.412 106.427 20.804C105.587 21.1773 104.701 21.364 103.767 21.364ZM116.82 21.364C114.935 21.364 113.479 20.6173 112.452 19.124C111.444 17.6307 110.94 15.6427 110.94 13.16C110.94 10.696 111.444 8.72667 112.452 7.252C113.46 5.77733 114.916 5.04 116.82 5.04C118.706 5.04 120.162 5.77733 121.188 7.252C122.234 8.72667 122.756 10.696 122.756 13.16C122.756 15.624 122.234 17.612 121.188 19.124C120.162 20.6173 118.706 21.364 116.82 21.364ZM116.82 18.452C117.66 18.452 118.202 17.9387 118.444 16.912C118.687 15.8853 118.808 14.6253 118.808 13.132C118.808 11.6387 118.687 10.3787 118.444 9.352C118.202 8.32533 117.66 7.812 116.82 7.812C115.98 7.812 115.448 8.29733 115.224 9.268C115 10.2387 114.888 11.424 114.888 12.824C114.888 14.5413 115 15.9133 115.224 16.94C115.448 17.948 115.98 18.452 116.82 18.452ZM125.423 5.572L129.343 5.236V7.784C129.903 6.98133 130.594 6.33733 131.415 5.852C132.255 5.348 133.319 5.096 134.607 5.096V8.932C133.935 8.932 133.048 9.05333 131.947 9.296C130.864 9.52 129.996 9.92133 129.343 10.5V20.832L125.423 21.168V5.572ZM142.119 21.308C140.85 21.308 139.776 20.9907 138.899 20.356C138.022 19.7027 137.583 18.5547 137.583 16.912V8.204H135.399L135.567 5.236H137.695L138.087 1.82L141.503 1.344V5.236H144.751L144.583 8.204H141.531V16.884C141.531 17.444 141.671 17.8453 141.951 18.088C142.231 18.3307 142.642 18.452 143.183 18.452C143.482 18.452 143.986 18.396 144.695 18.284V21C144.62 21.0187 144.322 21.0747 143.799 21.168C143.295 21.2613 142.735 21.308 142.119 21.308Z" fill="#BFA75F"/>
</svg>
